<mxfile host="app.diagrams.net" modified="2023-08-03T11:05:56.280Z" agent="Mozilla/5.0 (Windows NT 10.0; Win64; x64) AppleWebKit/537.36 (KHTML, like Gecko) Chrome/115.0.0.0 Safari/537.36 Edg/115.0.1901.183" etag="KfHzwPY-pngT--UuufE7" version="21.6.5" type="device">
  <diagram id="C5RBs43oDa-KdzZeNtuy" name="Page-1">
    <mxGraphModel dx="736" dy="1922" grid="0" gridSize="10" guides="1" tooltips="1" connect="1" arrows="1" fold="1" page="1" pageScale="1" pageWidth="827" pageHeight="1169" math="0" shadow="0">
      <root>
        <mxCell id="WIyWlLk6GJQsqaUBKTNV-0" />
        <mxCell id="WIyWlLk6GJQsqaUBKTNV-1" parent="WIyWlLk6GJQsqaUBKTNV-0" />
        <mxCell id="wOFa2q8-pe02u4QhnGjk-18" value="NoSupport" style="swimlane;fontStyle=1;align=center;verticalAlign=top;childLayout=stackLayout;horizontal=1;startSize=26;horizontalStack=0;resizeParent=1;resizeLast=0;collapsible=1;marginBottom=0;rounded=0;shadow=0;strokeWidth=1;" vertex="1" parent="WIyWlLk6GJQsqaUBKTNV-1">
          <mxGeometry x="102.5" y="334" width="160" height="68" as="geometry">
            <mxRectangle x="230" y="140" width="160" height="26" as="alternateBounds" />
          </mxGeometry>
        </mxCell>
        <mxCell id="wOFa2q8-pe02u4QhnGjk-19" value="" style="line;html=1;strokeWidth=1;align=left;verticalAlign=middle;spacingTop=-1;spacingLeft=3;spacingRight=3;rotatable=0;labelPosition=right;points=[];portConstraint=eastwest;fontStyle=1" vertex="1" parent="wOFa2q8-pe02u4QhnGjk-18">
          <mxGeometry y="26" width="160" height="8" as="geometry" />
        </mxCell>
        <mxCell id="wOFa2q8-pe02u4QhnGjk-130" value="+ check(Login): boolean" style="text;align=left;verticalAlign=top;spacingLeft=4;spacingRight=4;overflow=hidden;rotatable=0;points=[[0,0.5],[1,0.5]];portConstraint=eastwest;fontStyle=1" vertex="1" parent="wOFa2q8-pe02u4QhnGjk-18">
          <mxGeometry y="34" width="160" height="26" as="geometry" />
        </mxCell>
        <mxCell id="wOFa2q8-pe02u4QhnGjk-29" value="&lt;&lt;abstract&gt;&gt;&#xa;Support" style="swimlane;fontStyle=1;align=center;verticalAlign=top;childLayout=stackLayout;horizontal=1;startSize=40;horizontalStack=0;resizeParent=1;resizeLast=0;collapsible=1;marginBottom=0;rounded=0;shadow=0;strokeWidth=1;" vertex="1" parent="WIyWlLk6GJQsqaUBKTNV-1">
          <mxGeometry x="346" y="59" width="219" height="185" as="geometry">
            <mxRectangle x="230" y="140" width="160" height="26" as="alternateBounds" />
          </mxGeometry>
        </mxCell>
        <mxCell id="wOFa2q8-pe02u4QhnGjk-127" value="- next: Support" style="text;align=left;verticalAlign=top;spacingLeft=4;spacingRight=4;overflow=hidden;rotatable=0;points=[[0,0.5],[1,0.5]];portConstraint=eastwest;fontStyle=1" vertex="1" parent="wOFa2q8-pe02u4QhnGjk-29">
          <mxGeometry y="40" width="219" height="26" as="geometry" />
        </mxCell>
        <mxCell id="wOFa2q8-pe02u4QhnGjk-128" value="+ check: int" style="text;align=left;verticalAlign=bottom;spacingLeft=4;spacingRight=4;overflow=hidden;rotatable=0;points=[[0,0.5],[1,0.5]];portConstraint=eastwest;fontStyle=5" vertex="1" parent="wOFa2q8-pe02u4QhnGjk-29">
          <mxGeometry y="66" width="219" height="26" as="geometry" />
        </mxCell>
        <mxCell id="wOFa2q8-pe02u4QhnGjk-30" value="" style="line;html=1;strokeWidth=1;align=left;verticalAlign=middle;spacingTop=-1;spacingLeft=3;spacingRight=3;rotatable=0;labelPosition=right;points=[];portConstraint=eastwest;fontStyle=1" vertex="1" parent="wOFa2q8-pe02u4QhnGjk-29">
          <mxGeometry y="92" width="219" height="8" as="geometry" />
        </mxCell>
        <mxCell id="wOFa2q8-pe02u4QhnGjk-31" value="+Â setNext(Support): Support" style="text;align=left;verticalAlign=top;spacingLeft=4;spacingRight=4;overflow=hidden;rotatable=0;points=[[0,0.5],[1,0.5]];portConstraint=eastwest;fontStyle=1" vertex="1" parent="wOFa2q8-pe02u4QhnGjk-29">
          <mxGeometry y="100" width="219" height="26" as="geometry" />
        </mxCell>
        <mxCell id="wOFa2q8-pe02u4QhnGjk-32" value="+ support(Login): void {final}" style="text;align=left;verticalAlign=top;spacingLeft=4;spacingRight=4;overflow=hidden;rotatable=0;points=[[0,0.5],[1,0.5]];portConstraint=eastwest;fontStyle=1" vertex="1" parent="wOFa2q8-pe02u4QhnGjk-29">
          <mxGeometry y="126" width="219" height="26" as="geometry" />
        </mxCell>
        <mxCell id="wOFa2q8-pe02u4QhnGjk-80" value="+ check(Login): boolean {abstract}" style="text;align=left;verticalAlign=top;spacingLeft=4;spacingRight=4;overflow=hidden;rotatable=0;points=[[0,0.5],[1,0.5]];portConstraint=eastwest;fontStyle=1" vertex="1" parent="wOFa2q8-pe02u4QhnGjk-29">
          <mxGeometry y="152" width="219" height="26" as="geometry" />
        </mxCell>
        <mxCell id="wOFa2q8-pe02u4QhnGjk-126" value="" style="endArrow=classic;html=1;rounded=0;fontSize=12;startSize=8;endSize=8;curved=1;exitX=1;exitY=0.5;exitDx=0;exitDy=0;entryX=0.5;entryY=0;entryDx=0;entryDy=0;" edge="1" parent="wOFa2q8-pe02u4QhnGjk-29" source="wOFa2q8-pe02u4QhnGjk-32" target="wOFa2q8-pe02u4QhnGjk-29">
          <mxGeometry width="50" height="50" relative="1" as="geometry">
            <mxPoint x="195" y="131" as="sourcePoint" />
            <mxPoint x="245" y="81" as="targetPoint" />
            <Array as="points">
              <mxPoint x="304" y="137" />
              <mxPoint x="269" y="-61" />
              <mxPoint x="161" y="-80" />
              <mxPoint x="114" y="-55" />
            </Array>
          </mxGeometry>
        </mxCell>
        <mxCell id="wOFa2q8-pe02u4QhnGjk-131" value="IdSupport" style="swimlane;fontStyle=1;align=center;verticalAlign=top;childLayout=stackLayout;horizontal=1;startSize=26;horizontalStack=0;resizeParent=1;resizeLast=0;collapsible=1;marginBottom=0;rounded=0;shadow=0;strokeWidth=1;" vertex="1" parent="WIyWlLk6GJQsqaUBKTNV-1">
          <mxGeometry x="284.5" y="334" width="160" height="68" as="geometry">
            <mxRectangle x="230" y="140" width="160" height="26" as="alternateBounds" />
          </mxGeometry>
        </mxCell>
        <mxCell id="wOFa2q8-pe02u4QhnGjk-132" value="" style="line;html=1;strokeWidth=1;align=left;verticalAlign=middle;spacingTop=-1;spacingLeft=3;spacingRight=3;rotatable=0;labelPosition=right;points=[];portConstraint=eastwest;fontStyle=1" vertex="1" parent="wOFa2q8-pe02u4QhnGjk-131">
          <mxGeometry y="26" width="160" height="8" as="geometry" />
        </mxCell>
        <mxCell id="wOFa2q8-pe02u4QhnGjk-133" value="+ check(Login): boolean" style="text;align=left;verticalAlign=top;spacingLeft=4;spacingRight=4;overflow=hidden;rotatable=0;points=[[0,0.5],[1,0.5]];portConstraint=eastwest;fontStyle=1" vertex="1" parent="wOFa2q8-pe02u4QhnGjk-131">
          <mxGeometry y="34" width="160" height="26" as="geometry" />
        </mxCell>
        <mxCell id="wOFa2q8-pe02u4QhnGjk-134" value="PassWordSupport" style="swimlane;fontStyle=1;align=center;verticalAlign=top;childLayout=stackLayout;horizontal=1;startSize=26;horizontalStack=0;resizeParent=1;resizeLast=0;collapsible=1;marginBottom=0;rounded=0;shadow=0;strokeWidth=1;" vertex="1" parent="WIyWlLk6GJQsqaUBKTNV-1">
          <mxGeometry x="466.5" y="334" width="160" height="68" as="geometry">
            <mxRectangle x="230" y="140" width="160" height="26" as="alternateBounds" />
          </mxGeometry>
        </mxCell>
        <mxCell id="wOFa2q8-pe02u4QhnGjk-135" value="" style="line;html=1;strokeWidth=1;align=left;verticalAlign=middle;spacingTop=-1;spacingLeft=3;spacingRight=3;rotatable=0;labelPosition=right;points=[];portConstraint=eastwest;fontStyle=1" vertex="1" parent="wOFa2q8-pe02u4QhnGjk-134">
          <mxGeometry y="26" width="160" height="8" as="geometry" />
        </mxCell>
        <mxCell id="wOFa2q8-pe02u4QhnGjk-136" value="+ check(Login): boolean" style="text;align=left;verticalAlign=top;spacingLeft=4;spacingRight=4;overflow=hidden;rotatable=0;points=[[0,0.5],[1,0.5]];portConstraint=eastwest;fontStyle=1" vertex="1" parent="wOFa2q8-pe02u4QhnGjk-134">
          <mxGeometry y="34" width="160" height="26" as="geometry" />
        </mxCell>
        <mxCell id="wOFa2q8-pe02u4QhnGjk-137" value="SecurityCodeSupport" style="swimlane;fontStyle=1;align=center;verticalAlign=top;childLayout=stackLayout;horizontal=1;startSize=26;horizontalStack=0;resizeParent=1;resizeLast=0;collapsible=1;marginBottom=0;rounded=0;shadow=0;strokeWidth=1;" vertex="1" parent="WIyWlLk6GJQsqaUBKTNV-1">
          <mxGeometry x="648.5" y="334" width="160" height="68" as="geometry">
            <mxRectangle x="230" y="140" width="160" height="26" as="alternateBounds" />
          </mxGeometry>
        </mxCell>
        <mxCell id="wOFa2q8-pe02u4QhnGjk-138" value="" style="line;html=1;strokeWidth=1;align=left;verticalAlign=middle;spacingTop=-1;spacingLeft=3;spacingRight=3;rotatable=0;labelPosition=right;points=[];portConstraint=eastwest;fontStyle=1" vertex="1" parent="wOFa2q8-pe02u4QhnGjk-137">
          <mxGeometry y="26" width="160" height="8" as="geometry" />
        </mxCell>
        <mxCell id="wOFa2q8-pe02u4QhnGjk-139" value="+ check(Login): boolean" style="text;align=left;verticalAlign=top;spacingLeft=4;spacingRight=4;overflow=hidden;rotatable=0;points=[[0,0.5],[1,0.5]];portConstraint=eastwest;fontStyle=1" vertex="1" parent="wOFa2q8-pe02u4QhnGjk-137">
          <mxGeometry y="34" width="160" height="26" as="geometry" />
        </mxCell>
        <mxCell id="wOFa2q8-pe02u4QhnGjk-144" value="" style="endArrow=classic;html=1;rounded=0;fontSize=12;startSize=8;endSize=8;curved=1;exitX=0.5;exitY=0;exitDx=0;exitDy=0;entryX=0.5;entryY=1;entryDx=0;entryDy=0;" edge="1" parent="WIyWlLk6GJQsqaUBKTNV-1" source="wOFa2q8-pe02u4QhnGjk-131" target="wOFa2q8-pe02u4QhnGjk-29">
          <mxGeometry width="50" height="50" relative="1" as="geometry">
            <mxPoint x="254" y="246" as="sourcePoint" />
            <mxPoint x="304" y="196" as="targetPoint" />
          </mxGeometry>
        </mxCell>
        <mxCell id="wOFa2q8-pe02u4QhnGjk-145" value="" style="endArrow=classic;html=1;rounded=0;fontSize=12;startSize=8;endSize=8;curved=1;exitX=0.5;exitY=0;exitDx=0;exitDy=0;entryX=0.5;entryY=1;entryDx=0;entryDy=0;" edge="1" parent="WIyWlLk6GJQsqaUBKTNV-1" source="wOFa2q8-pe02u4QhnGjk-134" target="wOFa2q8-pe02u4QhnGjk-29">
          <mxGeometry width="50" height="50" relative="1" as="geometry">
            <mxPoint x="375" y="344" as="sourcePoint" />
            <mxPoint x="466" y="254" as="targetPoint" />
          </mxGeometry>
        </mxCell>
        <mxCell id="wOFa2q8-pe02u4QhnGjk-146" value="" style="endArrow=classic;html=1;rounded=0;fontSize=12;startSize=8;endSize=8;curved=1;exitX=0.5;exitY=0;exitDx=0;exitDy=0;entryX=0.5;entryY=1;entryDx=0;entryDy=0;" edge="1" parent="WIyWlLk6GJQsqaUBKTNV-1" source="wOFa2q8-pe02u4QhnGjk-18" target="wOFa2q8-pe02u4QhnGjk-29">
          <mxGeometry width="50" height="50" relative="1" as="geometry">
            <mxPoint x="385" y="354" as="sourcePoint" />
            <mxPoint x="476" y="264" as="targetPoint" />
          </mxGeometry>
        </mxCell>
        <mxCell id="wOFa2q8-pe02u4QhnGjk-147" value="" style="endArrow=classic;html=1;rounded=0;fontSize=12;startSize=8;endSize=8;curved=1;exitX=0.5;exitY=0;exitDx=0;exitDy=0;entryX=0.5;entryY=1;entryDx=0;entryDy=0;" edge="1" parent="WIyWlLk6GJQsqaUBKTNV-1" source="wOFa2q8-pe02u4QhnGjk-137" target="wOFa2q8-pe02u4QhnGjk-29">
          <mxGeometry width="50" height="50" relative="1" as="geometry">
            <mxPoint x="193" y="344" as="sourcePoint" />
            <mxPoint x="466" y="254" as="targetPoint" />
          </mxGeometry>
        </mxCell>
      </root>
    </mxGraphModel>
  </diagram>
</mxfile>
